<?xml version="1.0" encoding="UTF-8" standalone="no"?>
<svg
   xmlns:dc="http://purl.org/dc/elements/1.1/"
   xmlns:cc="http://creativecommons.org/ns#"
   xmlns:rdf="http://www.w3.org/1999/02/22-rdf-syntax-ns#"
   xmlns:svg="http://www.w3.org/2000/svg"
   xmlns="http://www.w3.org/2000/svg"
   xmlns:sodipodi="http://sodipodi.sourceforge.net/DTD/sodipodi-0.dtd"
   xmlns:inkscape="http://www.inkscape.org/namespaces/inkscape"
   version="1.1"
   x="0px"
   y="0px"
   viewBox="0 0 100 125"
   style="enable-background:new 0 0 100 100;"
   xml:space="preserve"
   id="svg2"
   inkscape:version="0.91 r13725"
   sodipodi:docname="bomb_text.svg"><metadata
     id="metadata28"><rdf:RDF><cc:Work
         rdf:about=""><dc:format>image/svg+xml</dc:format><dc:type
           rdf:resource="http://purl.org/dc/dcmitype/StillImage" /></cc:Work></rdf:RDF></metadata><defs
     id="defs26" /><sodipodi:namedview
     pagecolor="#ffffff"
     bordercolor="#666666"
     borderopacity="1"
     objecttolerance="10"
     gridtolerance="10"
     guidetolerance="10"
     inkscape:pageopacity="0"
     inkscape:pageshadow="2"
     inkscape:window-width="700"
     inkscape:window-height="480"
     id="namedview24"
     showgrid="false"
     inkscape:zoom="1.888"
     inkscape:cx="50"
     inkscape:cy="62.5"
     inkscape:window-x="0"
     inkscape:window-y="0"
     inkscape:window-maximized="0"
     inkscape:current-layer="svg2" /><path
     d="M44.5,44.4v-3.9c0-1.1-0.9-2-2-2h-5.6c0-2.2,0.3-5.1,1.8-6.9c1.1-1.3,2.6-1.9,4.7-1.9c3.1,0,6.1,1.2,8.9,2.3  c5.4,2.2,11.1,4.4,16.9-1.6c0.6-0.6,0.6-1.5,0-2.1c-0.6-0.6-1.5-0.6-2.1,0c-4.4,4.6-8.5,3-13.6,0.9c-3.1-1.3-6.4-2.6-10-2.6  c-3,0-5.3,1-7,3c-2.2,2.6-2.5,6.3-2.5,8.8h-5.1c-1.1,0-2,0.9-2,2v3.9C18.3,47.9,12.3,56.3,12.3,66c0,12.9,10.4,23.3,23.3,23.3  S59,78.9,59,66C59,56.3,53,47.9,44.5,44.4z M32.9,80.3c-0.2,0.6-0.8,1.1-1.4,1.1c-0.1,0-0.3,0-0.4-0.1c-6.8-2-11.3-8.2-11.3-15.3  c0-3.5,1.1-6.9,3.3-9.7c0.5-0.7,1.4-0.8,2.1-0.3c0.7,0.5,0.8,1.4,0.3,2.1c-1.7,2.3-2.7,5-2.7,7.9c0,5.7,3.8,10.8,9.2,12.4  C32.7,78.6,33.2,79.5,32.9,80.3z"
     id="path4" /><path
     d="M82.3,14.5c0.5-0.6,0.5-1.6-0.2-2.1c-0.6-0.5-1.6-0.5-2.1,0.2l-8.6,10.1c-0.5,0.6-0.5,1.6,0.2,2.1c0.3,0.2,0.6,0.4,1,0.4  c0.4,0,0.8-0.2,1.1-0.5L82.3,14.5z"
     id="path6" /><path
     d="M61.3,36.3l-5.4,6.4c-0.5,0.6-0.5,1.6,0.2,2.1c0.3,0.2,0.6,0.4,1,0.4c0.4,0,0.8-0.2,1.1-0.5l5.4-6.4  c0.5-0.6,0.5-1.6-0.2-2.1C62.8,35.6,61.8,35.7,61.3,36.3z"
     id="path8" /><path
     d="M60.7,13.9C60.7,13.9,60.7,13.9,60.7,13.9l3.9,8.7c0,0,0,0,0,0l0.5,1.1c0.3,0.6,0.8,0.9,1.4,0.9c0.2,0,0.4,0,0.6-0.1  c0.8-0.3,1.1-1.2,0.7-2l-0.5-1.1c0,0,0,0,0,0l-3.9-8.7c0,0,0,0,0,0l-0.5-1.1c-0.3-0.8-1.2-1.1-2-0.7c-0.8,0.3-1.1,1.2-0.7,2  L60.7,13.9z"
     id="path10" /><path
     d="M75.5,32.4c-0.6-0.6-1.6-0.5-2.1,0.1c-0.6,0.6-0.5,1.6,0.1,2.1l9.7,9.2c0.3,0.3,0.7,0.4,1,0.4c0.4,0,0.8-0.2,1.1-0.5  c0.6-0.6,0.5-1.6-0.1-2.1L75.5,32.4z"
     id="path12" /><path
     d="M86.2,26.6l-10.5,0c-0.8,0-1.5,0.7-1.5,1.5c0,0.8,0.7,1.5,1.5,1.5l10.5,0c0.8,0,1.5-0.7,1.5-1.5  C87.7,27.3,87,26.6,86.2,26.6z"
     id="path14" /><path
     d="M50.9,21.7l11.6,5.4c0.2,0.1,0.4,0.1,0.6,0.1c0.6,0,1.1-0.3,1.4-0.9c0.4-0.8,0-1.6-0.7-2L52.2,19c-0.7-0.4-1.6,0-2,0.7  C49.9,20.5,50.2,21.3,50.9,21.7z"
     id="path16" /><path
     d="M69.5,34.8c-0.8,0-1.5,0.7-1.5,1.5l0,11.3c0,0.8,0.7,1.5,1.5,1.5c0.8,0,1.5-0.7,1.5-1.5l0-11.3C71,35.4,70.4,34.8,69.5,34.8  z"
     id="path18" /></svg>