<svg xmlns="http://www.w3.org/2000/svg" xmlns:xlink="http://www.w3.org/1999/xlink" version="1.1" x="0px" y="0px" viewBox="0 0 100 125" style="enable-background:new 0 0 100 100;" xml:space="preserve"><path d="M73.8,11.5H26.2c-3.6,0-6.5,2.9-6.5,6.5v57.7c0,0.8,0.7,1.5,1.5,1.5H23V87c0,0.8,0.7,1.5,1.5,1.5h52.1  c0.8,0,1.5-0.7,1.5-1.5v-9.8h0.7c0.8,0,1.5-0.7,1.5-1.5V18C80.3,14.4,77.4,11.5,73.8,11.5z M75.1,85.5H26v-8.3h49.1V85.5z   M77.3,74.2h-0.7H24.5h-1.8V18c0-1.9,1.6-3.5,3.5-3.5h47.6c1.9,0,3.5,1.6,3.5,3.5V74.2z"/><path d="M69.1,19H30.9c-1.9,0-3.5,1.6-3.5,3.5v28c0,1.9,1.6,3.5,3.5,3.5h38.2c1.9,0,3.5-1.6,3.5-3.5v-28C72.6,20.6,71,19,69.1,19z   M69.6,50.5c0,0.3-0.2,0.5-0.5,0.5H30.9c-0.3,0-0.5-0.2-0.5-0.5v-28c0-0.3,0.2-0.5,0.5-0.5h38.2c0.3,0,0.5,0.2,0.5,0.5V50.5z"/><path d="M69.7,63.8H57c-0.8,0-1.5,0.7-1.5,1.5s0.7,1.5,1.5,1.5h12.7c0.8,0,1.5-0.7,1.5-1.5S70.5,63.8,69.7,63.8z"/><path d="M32,65.8h-3.6c-0.8,0-1.5,0.7-1.5,1.5s0.7,1.5,1.5,1.5H32c0.8,0,1.5-0.7,1.5-1.5S32.8,65.8,32,65.8z"/><path d="M42.8,31.1v-1.8c0-1.1-0.9-2-2-2s-2,0.9-2,2v1.8c0,1.1,0.9,2,2,2S42.8,32.2,42.8,31.1z"/><path d="M57.1,27.3c-1.1,0-2,0.9-2,2v1.8c0,1.1,0.9,2,2,2s2-0.9,2-2v-1.8C59.1,28.2,58.2,27.3,57.1,27.3z"/><path d="M47.6,39.6h2.2c0.8,0,1.5-0.7,1.5-1.5v-8.8c0-0.8-0.7-1.5-1.5-1.5s-1.5,0.7-1.5,1.5v7.3h-0.7c-0.8,0-1.5,0.7-1.5,1.5  S46.8,39.6,47.6,39.6z"/><path d="M54.7,42.6c-3.9,3.1-7.5,3.1-11.4,0c-0.6-0.5-1.6-0.4-2.1,0.2c-0.5,0.6-0.4,1.6,0.2,2.1c2.5,2,5,3,7.6,3c2.5,0,5.1-1,7.6-3  c0.6-0.5,0.8-1.5,0.2-2.1C56.3,42.2,55.3,42.1,54.7,42.6z"/><text x="0" y="115" fill="#000000" font-size="5px" font-weight="bold" font-family="'Helvetica Neue', Helvetica, Arial-Unicode, Arial, Sans-serif">Created by Musavvir Ahmed</text><text x="0" y="120" fill="#000000" font-size="5px" font-weight="bold" font-family="'Helvetica Neue', Helvetica, Arial-Unicode, Arial, Sans-serif">from the Noun Project</text></svg>