<?xml version="1.0" encoding="UTF-8" standalone="no"?>
<svg
   xmlns:dc="http://purl.org/dc/elements/1.1/"
   xmlns:cc="http://creativecommons.org/ns#"
   xmlns:rdf="http://www.w3.org/1999/02/22-rdf-syntax-ns#"
   xmlns:svg="http://www.w3.org/2000/svg"
   xmlns="http://www.w3.org/2000/svg"
   xmlns:sodipodi="http://sodipodi.sourceforge.net/DTD/sodipodi-0.dtd"
   xmlns:inkscape="http://www.inkscape.org/namespaces/inkscape"
   version="1.1"
   x="0px"
   y="0px"
   viewBox="0 0 100 125"
   style="enable-background:new 0 0 100 100;"
   xml:space="preserve"
   id="svg2"
   inkscape:version="0.91 r13725"
   sodipodi:docname="happy_mac.svg"><metadata
     id="metadata28"><rdf:RDF><cc:Work
         rdf:about=""><dc:format>image/svg+xml</dc:format><dc:type
           rdf:resource="http://purl.org/dc/dcmitype/StillImage" /></cc:Work></rdf:RDF></metadata><defs
     id="defs26" /><sodipodi:namedview
     pagecolor="#ffffff"
     bordercolor="#666666"
     borderopacity="1"
     objecttolerance="10"
     gridtolerance="10"
     guidetolerance="10"
     inkscape:pageopacity="0"
     inkscape:pageshadow="2"
     inkscape:window-width="700"
     inkscape:window-height="480"
     id="namedview24"
     showgrid="false"
     inkscape:zoom="1.888"
     inkscape:cx="50"
     inkscape:cy="62.5"
     inkscape:window-x="0"
     inkscape:window-y="0"
     inkscape:window-maximized="0"
     inkscape:current-layer="svg2" /><path
     d="M73.8,11.5H26.2c-3.6,0-6.5,2.9-6.5,6.5v57.7c0,0.8,0.7,1.5,1.5,1.5H23V87c0,0.8,0.7,1.5,1.5,1.5h52.1  c0.8,0,1.5-0.7,1.5-1.5v-9.8h0.7c0.8,0,1.5-0.7,1.5-1.5V18C80.3,14.4,77.4,11.5,73.8,11.5z M75.1,85.5H26v-8.3h49.1V85.5z   M77.3,74.2h-0.7H24.5h-1.8V18c0-1.9,1.6-3.5,3.5-3.5h47.6c1.9,0,3.5,1.6,3.5,3.5V74.2z"
     id="path4" /><path
     d="M69.1,19H30.9c-1.9,0-3.5,1.6-3.5,3.5v28c0,1.9,1.6,3.5,3.5,3.5h38.2c1.9,0,3.5-1.6,3.5-3.5v-28C72.6,20.6,71,19,69.1,19z   M69.6,50.5c0,0.3-0.2,0.5-0.5,0.5H30.9c-0.3,0-0.5-0.2-0.5-0.5v-28c0-0.3,0.2-0.5,0.5-0.5h38.2c0.3,0,0.5,0.2,0.5,0.5V50.5z"
     id="path6" /><path
     d="M69.7,63.8H57c-0.8,0-1.5,0.7-1.5,1.5s0.7,1.5,1.5,1.5h12.7c0.8,0,1.5-0.7,1.5-1.5S70.5,63.8,69.7,63.8z"
     id="path8" /><path
     d="M32,65.8h-3.6c-0.8,0-1.5,0.7-1.5,1.5s0.7,1.5,1.5,1.5H32c0.8,0,1.5-0.7,1.5-1.5S32.8,65.8,32,65.8z"
     id="path10" /><path
     d="M42.8,31.1v-1.8c0-1.1-0.9-2-2-2s-2,0.9-2,2v1.8c0,1.1,0.9,2,2,2S42.8,32.2,42.8,31.1z"
     id="path12" /><path
     d="M57.1,27.3c-1.1,0-2,0.9-2,2v1.8c0,1.1,0.9,2,2,2s2-0.9,2-2v-1.8C59.1,28.2,58.2,27.3,57.1,27.3z"
     id="path14" /><path
     d="M47.6,39.6h2.2c0.8,0,1.5-0.7,1.5-1.5v-8.8c0-0.8-0.7-1.5-1.5-1.5s-1.5,0.7-1.5,1.5v7.3h-0.7c-0.8,0-1.5,0.7-1.5,1.5  S46.8,39.6,47.6,39.6z"
     id="path16" /><path
     d="M54.7,42.6c-3.9,3.1-7.5,3.1-11.4,0c-0.6-0.5-1.6-0.4-2.1,0.2c-0.5,0.6-0.4,1.6,0.2,2.1c2.5,2,5,3,7.6,3c2.5,0,5.1-1,7.6-3  c0.6-0.5,0.8-1.5,0.2-2.1C56.3,42.2,55.3,42.1,54.7,42.6z"
     id="path18" /></svg>