<?xml version="1.0" encoding="UTF-8" standalone="no"?>
<svg
   xmlns:dc="http://purl.org/dc/elements/1.1/"
   xmlns:cc="http://creativecommons.org/ns#"
   xmlns:rdf="http://www.w3.org/1999/02/22-rdf-syntax-ns#"
   xmlns:svg="http://www.w3.org/2000/svg"
   xmlns="http://www.w3.org/2000/svg"
   xmlns:sodipodi="http://sodipodi.sourceforge.net/DTD/sodipodi-0.dtd"
   xmlns:inkscape="http://www.inkscape.org/namespaces/inkscape"
   version="1.1"
   x="0px"
   y="0px"
   viewBox="0 0 100 125"
   style="enable-background:new 0 0 100 100;"
   xml:space="preserve"
   id="svg2"
   inkscape:version="0.91 r13725"
   sodipodi:docname="resume.svg"><metadata
     id="metadata90"><rdf:RDF><cc:Work
         rdf:about=""><dc:format>image/svg+xml</dc:format><dc:type
           rdf:resource="http://purl.org/dc/dcmitype/StillImage" /></cc:Work></rdf:RDF></metadata><defs
     id="defs88" /><sodipodi:namedview
     pagecolor="#ffffff"
     bordercolor="#666666"
     borderopacity="1"
     objecttolerance="10"
     gridtolerance="10"
     guidetolerance="10"
     inkscape:pageopacity="0"
     inkscape:pageshadow="2"
     inkscape:window-width="700"
     inkscape:window-height="480"
     id="namedview86"
     showgrid="false"
     inkscape:zoom="1.888"
     inkscape:cx="50"
     inkscape:cy="62.5"
     inkscape:window-x="0"
     inkscape:window-y="0"
     inkscape:window-maximized="0"
     inkscape:current-layer="svg2" /><path
     d="M79.9,26.7c0-0.1,0-0.1-0.1-0.2c0,0,0-0.1,0-0.1c0-0.1-0.1-0.1-0.1-0.2c0,0,0,0,0,0c-0.1-0.1-0.1-0.2-0.2-0.2l0,0L65.8,12.3  l0,0c-0.1-0.1-0.1-0.1-0.2-0.2c0,0,0,0,0,0c-0.1,0-0.1-0.1-0.2-0.1c0,0-0.1,0-0.1,0c-0.1,0-0.1,0-0.2-0.1c-0.1,0-0.2,0-0.3,0H21.6  c-0.8,0-1.5,0.7-1.5,1.5v73.3c0,0.8,0.7,1.5,1.5,1.5h56.8c0.8,0,1.5-0.7,1.5-1.5V27C79.9,26.9,79.9,26.8,79.9,26.7z M66.2,17  l8.6,8.6h-8.6V17z M76.9,85.1H23.1V14.9h40.1v7h-8.4v2.6h8.4V27c0,0.8,0.7,1.5,1.5,1.5h12.2V85.1z"
     id="path4" /><rect
     x="30.8"
     y="76.3"
     width="6.9"
     height="2.6"
     id="rect6" /><rect
     x="39.5"
     y="76.3"
     width="12"
     height="2.6"
     id="rect8" /><rect
     x="53.1"
     y="76.3"
     width="8.6"
     height="2.6"
     id="rect10" /><rect
     x="65.2"
     y="76.3"
     width="5.1"
     height="2.6"
     id="rect12" /><rect
     x="30.8"
     y="71.3"
     width="8.6"
     height="2.6"
     id="rect14" /><rect
     x="41.2"
     y="71.3"
     width="6.8"
     height="2.6"
     id="rect16" /><rect
     x="51.5"
     y="71.3"
     width="6.9"
     height="2.6"
     id="rect18" /><rect
     x="60.1"
     y="71.3"
     width="10.3"
     height="2.6"
     id="rect20" /><rect
     x="34.3"
     y="66.2"
     width="10.3"
     height="2.6"
     id="rect22" /><rect
     x="46.3"
     y="66.2"
     width="6.8"
     height="2.6"
     id="rect24" /><rect
     x="54.9"
     y="66.2"
     width="5"
     height="2.6"
     id="rect26" /><rect
     x="61.8"
     y="66.2"
     width="8.6"
     height="2.6"
     id="rect28" /><rect
     x="30.8"
     y="59.2"
     width="8.6"
     height="2.6"
     id="rect30" /><rect
     x="41.2"
     y="59.2"
     width="11.9"
     height="2.6"
     id="rect32" /><rect
     x="54.9"
     y="59.2"
     width="10.3"
     height="2.6"
     id="rect34" /><rect
     x="30.8"
     y="54.2"
     width="5.1"
     height="2.6"
     id="rect36" /><rect
     x="37.7"
     y="54.2"
     width="8.6"
     height="2.6"
     id="rect38" /><rect
     x="47.9"
     y="54.2"
     width="10.3"
     height="2.6"
     id="rect40" /><rect
     x="60.1"
     y="54.2"
     width="8.5"
     height="2.6"
     id="rect42" /><rect
     x="30.8"
     y="49.1"
     width="8.6"
     height="2.6"
     id="rect44" /><rect
     x="41.2"
     y="49.1"
     width="10.2"
     height="2.6"
     id="rect46" /><rect
     x="53.1"
     y="49.1"
     width="8.6"
     height="2.6"
     id="rect48" /><rect
     x="65.2"
     y="49.1"
     width="3.3"
     height="2.6"
     id="rect50" /><rect
     x="34.3"
     y="44"
     width="10.2"
     height="2.6"
     id="rect52" /><rect
     x="46.3"
     y="44"
     width="8.6"
     height="2.6"
     id="rect54" /><rect
     x="58.3"
     y="44"
     width="10.2"
     height="2.6"
     id="rect56" /><rect
     x="30.9"
     y="32"
     width="10.2"
     height="2.6"
     id="rect58" /><rect
     x="44.5"
     y="32"
     width="13.8"
     height="2.6"
     id="rect60" /><rect
     x="60.1"
     y="32"
     width="10.2"
     height="2.6"
     id="rect62" /><rect
     x="34.3"
     y="21.9"
     width="6.9"
     height="2.6"
     id="rect64" /><rect
     x="44.6"
     y="21.9"
     width="8.5"
     height="2.6"
     id="rect66" /><rect
     x="39.4"
     y="26.9"
     width="6.9"
     height="2.6"
     id="rect68" /><rect
     x="30.9"
     y="26.9"
     width="6.9"
     height="2.6"
     id="rect70" /><rect
     x="48"
     y="26.9"
     width="12"
     height="2.6"
     id="rect72" /><rect
     x="39.4"
     y="37"
     width="6.9"
     height="2.6"
     id="rect74" /><rect
     x="30.9"
     y="37"
     width="6.9"
     height="2.6"
     id="rect76" /><rect
     x="47.9"
     y="37"
     width="7"
     height="2.6"
     id="rect78" /><rect
     x="58.3"
     y="37"
     width="8.6"
     height="2.6"
     id="rect80" /></svg>