<?xml version="1.0" encoding="UTF-8" standalone="no"?>
<svg
   xmlns:dc="http://purl.org/dc/elements/1.1/"
   xmlns:cc="http://creativecommons.org/ns#"
   xmlns:rdf="http://www.w3.org/1999/02/22-rdf-syntax-ns#"
   xmlns:svg="http://www.w3.org/2000/svg"
   xmlns="http://www.w3.org/2000/svg"
   xmlns:sodipodi="http://sodipodi.sourceforge.net/DTD/sodipodi-0.dtd"
   xmlns:inkscape="http://www.inkscape.org/namespaces/inkscape"
   version="1.1"
   x="0px"
   y="0px"
   viewBox="0 0 100 125"
   style="enable-background:new 0 0 100 100;"
   xml:space="preserve"
   id="svg2"
   inkscape:version="0.91 r13725"
   sodipodi:docname="rich_text.svg"><metadata
     id="metadata46"><rdf:RDF><cc:Work
         rdf:about=""><dc:format>image/svg+xml</dc:format><dc:type
           rdf:resource="http://purl.org/dc/dcmitype/StillImage" /></cc:Work></rdf:RDF></metadata><defs
     id="defs44" /><sodipodi:namedview
     pagecolor="#ffffff"
     bordercolor="#666666"
     borderopacity="1"
     objecttolerance="10"
     gridtolerance="10"
     guidetolerance="10"
     inkscape:pageopacity="0"
     inkscape:pageshadow="2"
     inkscape:window-width="700"
     inkscape:window-height="480"
     id="namedview42"
     showgrid="false"
     inkscape:zoom="1.888"
     inkscape:cx="50"
     inkscape:cy="62.5"
     inkscape:window-x="0"
     inkscape:window-y="0"
     inkscape:window-maximized="0"
     inkscape:current-layer="svg2" /><path
     d="M79.9,26.7c0-0.1,0-0.1-0.1-0.2c0,0,0-0.1,0-0.1c0-0.1-0.1-0.1-0.1-0.2c0,0,0,0,0,0c-0.1-0.1-0.1-0.2-0.2-0.2l0,0L65.8,12.3  l0,0c-0.1-0.1-0.1-0.1-0.2-0.2c0,0,0,0,0,0c-0.1,0-0.1-0.1-0.2-0.1c0,0-0.1,0-0.1,0c-0.1,0-0.1,0-0.2-0.1c-0.1,0-0.2,0-0.3,0H21.6  c-0.8,0-1.5,0.7-1.5,1.5v73.3c0,0.8,0.7,1.5,1.5,1.5h56.8c0.8,0,1.5-0.7,1.5-1.5V27C79.9,26.9,79.9,26.8,79.9,26.7z M66.2,17  l8.6,8.6h-8.6V17z M76.9,85.1H23.1V14.9h40.1V27c0,0.8,0.7,1.5,1.5,1.5h12.2V85.1z"
     id="path4" /><path
     d="M58.6,35v-5.7c0-0.8-0.7-1.5-1.5-1.5H42.6c-0.8,0-1.5,0.7-1.5,1.5v14.5c0,0.8,0.7,1.5,1.5,1.5h5.7V51c0,0.8,0.7,1.5,1.5,1.5  h14.5c0.8,0,1.5-0.7,1.5-1.5V36.5c0-0.8-0.7-1.5-1.5-1.5H58.6z M48.4,36.5v5.7h-4.2V30.8h11.5V35h-5.7C49,35,48.4,35.7,48.4,36.5z   M62.9,49.5H51.4v-4.2v-1.5v-1.5V38h4.2h1.5h1.5h4.2V49.5z"
     id="path6" /><path
     d="M42.7,63.6c-4.9,0-8.9,4-8.9,8.9s4,8.9,8.9,8.9s8.9-4,8.9-8.9S47.6,63.6,42.7,63.6z M42.7,78.3c-3.2,0-5.9-2.6-5.9-5.9  c0-3.2,2.6-5.9,5.9-5.9c3.2,0,5.9,2.6,5.9,5.9C48.6,75.7,45.9,78.3,42.7,78.3z"
     id="path8" /><circle
     cx="28.2"
     cy="22.1"
     r="1.7"
     id="circle10" /><circle
     cx="42.6"
     cy="22.1"
     r="1.7"
     id="circle12" /><circle
     cx="57"
     cy="22.1"
     r="1.7"
     id="circle14" /><circle
     cx="28.2"
     cy="36.5"
     r="1.7"
     id="circle16" /><circle
     cx="71.5"
     cy="36.5"
     r="1.7"
     id="circle18" /><circle
     cx="28.2"
     cy="51"
     r="1.7"
     id="circle20" /><circle
     cx="42.6"
     cy="51"
     r="1.7"
     id="circle22" /><circle
     cx="71.5"
     cy="51"
     r="1.7"
     id="circle24" /><circle
     cx="28.2"
     cy="65.4"
     r="1.7"
     id="circle26" /><circle
     cx="57"
     cy="65.4"
     r="1.7"
     id="circle28" /><circle
     cx="71.5"
     cy="65.4"
     r="1.7"
     id="circle30" /><circle
     cx="28.2"
     cy="79.8"
     r="1.7"
     id="circle32" /><circle
     cx="57"
     cy="79.8"
     r="1.7"
     id="circle34" /><circle
     cx="71.5"
     cy="79.8"
     r="1.7"
     id="circle36" /></svg>