<?xml version="1.0" encoding="UTF-8" standalone="no"?>
<!-- Created with Inkscape (http://www.inkscape.org/) -->

<svg
   xmlns:dc="http://purl.org/dc/elements/1.1/"
   xmlns:cc="http://creativecommons.org/ns#"
   xmlns:rdf="http://www.w3.org/1999/02/22-rdf-syntax-ns#"
   xmlns:svg="http://www.w3.org/2000/svg"
   xmlns="http://www.w3.org/2000/svg"
   xmlns:sodipodi="http://sodipodi.sourceforge.net/DTD/sodipodi-0.dtd"
   xmlns:inkscape="http://www.inkscape.org/namespaces/inkscape"
   width="30.254045mm"
   height="51.796791mm"
   viewBox="0 0 107.19937 183.53194"
   id="svg2"
   version="1.1"
   inkscape:version="0.91 r13725"
   sodipodi:docname="ds.svg">
  <defs
     id="defs4" />
  <sodipodi:namedview
     id="base"
     pagecolor="#ffffff"
     bordercolor="#666666"
     borderopacity="1.0"
     inkscape:pageopacity="0.0"
     inkscape:pageshadow="2"
     inkscape:zoom="0.1767767"
     inkscape:cx="2262.368"
     inkscape:cy="-2092.829"
     inkscape:document-units="px"
     inkscape:current-layer="layer1"
     showgrid="false"
     inkscape:window-width="1920"
     inkscape:window-height="1032"
     inkscape:window-x="1"
     inkscape:window-y="12"
     inkscape:window-maximized="0"
     fit-margin-top="0"
     fit-margin-left="0"
     fit-margin-right="0"
     fit-margin-bottom="0" />
  <metadata
     id="metadata7">
    <rdf:RDF>
      <cc:Work
         rdf:about="">
        <dc:format>image/svg+xml</dc:format>
        <dc:type
           rdf:resource="http://purl.org/dc/dcmitype/StillImage" />
        <dc:title></dc:title>
      </cc:Work>
    </rdf:RDF>
  </metadata>
  <g
     inkscape:label="Layer 1"
     inkscape:groupmode="layer"
     id="layer1"
     transform="translate(-264.02682,-331.21281)">
    <path
       sodipodi:nodetypes="csscccssssscsssccccsscssscsssssssscsssscccsssssssssssssssssscssssssscssscccccsscssscsc"
       inkscape:connector-curvature="0"
       id="path4514"
       d="m 302.97554,512.68183 c -10.3694,-3.31835 -17.90273,-8.09825 -25.56582,-16.22154 -10.6985,-11.34096 -12.38457,-16.4208 -12.9402,-38.98669 l -0.4427,-17.97858 12.21161,0 12.2116,0 -6.11845,-6.03587 c -10.96411,-10.81613 -14.61949,-22.27057 -14.64845,-45.90222 -0.0269,-22.00022 3.55785,-33.24889 13.65165,-42.83714 23.96268,-22.76253 68.53777,-15.65794 82.04463,13.07667 3.78825,8.05915 4.66636,13.78381 4.69628,30.61659 l 0.0279,15.69558 -9.41735,0.0671 c -7.78591,0.0555 -9.03258,0.30268 -7.19635,1.42687 5.68188,3.47855 13.45307,11.94275 16.31443,17.76928 3.14616,6.40647 3.15301,6.47369 3.15301,30.96258 2.34001,27.28845 -10.63816,52.64919 -37.22624,59.28871 -7.94254,1.83106 -23.58859,1.35216 -30.75556,-0.94136 z m 32.02465,-5.45095 c 16.57133,-4.52588 29.15361,-19.00886 30.52123,-35.13178 l 0.58701,-6.9204 -3.37252,4.56598 c -8.14031,11.02102 -19.86005,17.68592 -35.23923,20.0402 -20.42571,3.12682 -42.17894,-6.12788 -55.15394,-23.46469 l -2.56291,-3.42449 0.57956,6.69696 c 1.22449,14.14909 11.28401,27.41096 26.11893,34.43363 12.73974,6.03085 24.57022,7.01501 38.52187,3.20459 z m -3.67392,-23.80025 c 20.25763,-4.77604 33.11146,-19.15879 34.25106,-38.32513 0.71177,-11.97107 -1.65788,-19.6502 -8.36613,-27.11138 -6.59385,-7.33395 -13.22981,-10.52338 -32.48447,-15.61294 -8.47562,-2.24036 -17.29042,-5.31336 -19.58847,-6.8289 -4.83012,-3.18544 -5.52737,-2.48941 -5.52019,5.5106 0.008,9.0438 6.09835,15.20814 18.25968,18.4818 18.56514,4.99747 23.10555,7.52939 26.36237,14.70068 6.64964,14.6421 -3.79768,29.56806 -21.84113,31.20418 -12.10437,1.09758 -24.49878,-5.55848 -29.01977,-15.58424 l -2.10263,-4.66279 -10.6926,0 -10.69259,0 0.6903,3.13911 c 0.37967,1.72652 2.18727,6.28412 4.01691,10.12802 5.48187,11.51693 17.61558,20.8899 31.86417,24.61425 9.25989,2.42039 15.68792,2.51003 24.86349,0.34674 z m -0.32131,-25.58656 c 3.16574,-1.29158 3.27062,-1.51017 1.38807,-2.89295 -1.12003,-0.82269 -7.47717,-2.85913 -14.12698,-4.52542 -6.64982,-1.66628 -13.90265,-3.78674 -16.11743,-4.71213 -4.9277,-2.05893 -5.46658,-1.64687 -3.2982,2.52197 2.2288,4.285 6.1463,7.84954 11.045,10.04989 4.5472,2.04247 15.58732,1.81163 21.10954,-0.44136 z m 8.98324,-9.50245 c 1.88081,-7.01818 -0.29319,-13.85272 -5.4894,-17.2574 -1.59558,-1.04548 -7.41936,-3.11003 -12.94174,-4.58792 -16.23837,-4.34568 -22.26957,-8.29388 -25.88401,-16.94448 -5.36228,-12.8337 1.71548,-26.38268 15.30422,-29.29694 12.78592,-2.74208 26.52575,4.39177 29.23292,15.17801 0.73671,2.9353 0.86502,2.96826 11.55615,2.96826 l 10.81117,0 -0.74713,-3.70986 c -1.38453,-6.87474 -6.27585,-15.37625 -11.84248,-20.58318 -12.57353,-11.76107 -28.75628,-15.90825 -45.28291,-11.60474 -21.46574,5.58964 -33.86979,23.67328 -30.1832,44.00355 3.69695,20.38751 16.2179,31.07243 45.0682,38.45962 6.90606,1.7683 13.58381,3.81336 14.83946,4.54457 3.39835,1.97897 4.79368,1.68541 5.55875,-1.16949 z M 322.57264,385.8794 c -5.39005,-1.45139 -12.44288,-0.72765 -15.63172,1.6041 -1.87074,1.36791 -1.78348,1.6257 1.2155,3.5907 1.77701,1.16434 8.4154,3.50661 14.75198,5.20504 6.33657,1.69845 11.64946,3.12752 11.80642,3.17574 1.06664,-5.85921 -7.56143,-12.20444 -12.14218,-13.57558 z m 39.50858,-13.02935 c -1.40709,-13.63338 -10.25666,-25.1147 -24.59301,-31.90668 -13.71808,-5.21439 -28.43828,-5.61155 -40.21148,-0.0706 -4.11058,1.9479 -9.36518,5.20231 -11.67688,7.23201 -5.27394,4.63058 -10.78568,15.83379 -11.81632,24.01796 l -0.78761,6.25422 6.36924,-6.87955 c 7.41655,-8.01075 14.68295,-12.30224 24.91351,-14.71373 19.32257,-4.55461 38.83007,1.29628 51.61162,15.47988 3.26429,3.62236 6.13536,6.61898 6.38014,6.65914 0.2448,0.0402 0.15965,-2.69251 -0.18921,-6.07262 z"
       style="fill:#000000" />
  </g>
</svg>
